<mxfile host="app.diagrams.net" modified="2022-10-09T03:24:54.066Z" agent="5.0 (Windows NT 10.0; Win64; x64) AppleWebKit/537.36 (KHTML, like Gecko) Chrome/106.0.0.0 Safari/537.36" etag="dXuvs6dzZR-eyeEwXs29" version="20.4.0" type="github">
  <diagram id="CeXZaRw2I2U3lkSJKohQ" name="第 1 页">
    <mxGraphModel dx="782" dy="460" grid="1" gridSize="10" guides="1" tooltips="1" connect="1" arrows="1" fold="1" page="1" pageScale="1" pageWidth="827" pageHeight="1169" math="0" shadow="0">
      <root>
        <mxCell id="0" />
        <mxCell id="1" parent="0" />
        <mxCell id="HbaJhAwCwdT2y0Vmk7Qx-7" value="授权服务器" style="shape=umlLifeline;perimeter=lifelinePerimeter;whiteSpace=wrap;html=1;container=1;collapsible=0;recursiveResize=0;outlineConnect=0;" vertex="1" parent="1">
          <mxGeometry x="320" y="110" width="100" height="480" as="geometry" />
        </mxCell>
        <mxCell id="HbaJhAwCwdT2y0Vmk7Qx-17" value="" style="html=1;points=[];perimeter=orthogonalPerimeter;" vertex="1" parent="HbaJhAwCwdT2y0Vmk7Qx-7">
          <mxGeometry x="45" y="51" width="10" height="99" as="geometry" />
        </mxCell>
        <mxCell id="HbaJhAwCwdT2y0Vmk7Qx-30" value="校验用户信息和客户端" style="edgeStyle=orthogonalEdgeStyle;html=1;align=left;spacingLeft=2;endArrow=block;rounded=0;exitX=0.967;exitY=0.311;exitDx=0;exitDy=0;exitPerimeter=0;endFill=0;" edge="1" parent="HbaJhAwCwdT2y0Vmk7Qx-7" source="HbaJhAwCwdT2y0Vmk7Qx-17">
          <mxGeometry relative="1" as="geometry">
            <mxPoint x="45" y="181" as="sourcePoint" />
            <Array as="points">
              <mxPoint x="55" y="90" />
              <mxPoint x="110" y="90" />
              <mxPoint x="110" y="130" />
            </Array>
            <mxPoint x="55" y="130" as="targetPoint" />
          </mxGeometry>
        </mxCell>
        <mxCell id="HbaJhAwCwdT2y0Vmk7Qx-35" value="客户存储token" style="endArrow=block;endFill=0;endSize=6;html=1;rounded=0;" edge="1" parent="HbaJhAwCwdT2y0Vmk7Qx-7" source="HbaJhAwCwdT2y0Vmk7Qx-9">
          <mxGeometry width="160" relative="1" as="geometry">
            <mxPoint x="-160" y="167" as="sourcePoint" />
            <mxPoint x="-165.5" y="210" as="targetPoint" />
            <Array as="points">
              <mxPoint x="-95" y="167" />
              <mxPoint x="-95" y="210" />
            </Array>
          </mxGeometry>
        </mxCell>
        <mxCell id="HbaJhAwCwdT2y0Vmk7Qx-36" value="" style="html=1;points=[];perimeter=orthogonalPerimeter;" vertex="1" parent="HbaJhAwCwdT2y0Vmk7Qx-7">
          <mxGeometry x="45" y="277" width="10" height="110" as="geometry" />
        </mxCell>
        <mxCell id="HbaJhAwCwdT2y0Vmk7Qx-40" value="" style="endArrow=block;endFill=0;endSize=6;html=1;rounded=0;exitX=1;exitY=0.227;exitDx=0;exitDy=0;exitPerimeter=0;" edge="1" parent="HbaJhAwCwdT2y0Vmk7Qx-7" source="HbaJhAwCwdT2y0Vmk7Qx-36">
          <mxGeometry width="160" relative="1" as="geometry">
            <mxPoint x="60.5" y="302" as="sourcePoint" />
            <mxPoint x="55" y="352" as="targetPoint" />
            <Array as="points">
              <mxPoint x="145.5" y="302" />
              <mxPoint x="145.5" y="352" />
            </Array>
          </mxGeometry>
        </mxCell>
        <mxCell id="HbaJhAwCwdT2y0Vmk7Qx-41" value="token校验" style="edgeLabel;html=1;align=center;verticalAlign=middle;resizable=0;points=[];" vertex="1" connectable="0" parent="HbaJhAwCwdT2y0Vmk7Qx-40">
          <mxGeometry x="-0.122" y="3" relative="1" as="geometry">
            <mxPoint as="offset" />
          </mxGeometry>
        </mxCell>
        <mxCell id="HbaJhAwCwdT2y0Vmk7Qx-42" value="" style="endArrow=block;dashed=1;endFill=0;endSize=6;html=1;rounded=0;" edge="1" parent="HbaJhAwCwdT2y0Vmk7Qx-7">
          <mxGeometry width="160" relative="1" as="geometry">
            <mxPoint x="55" y="377" as="sourcePoint" />
            <mxPoint x="249.5" y="377" as="targetPoint" />
          </mxGeometry>
        </mxCell>
        <mxCell id="HbaJhAwCwdT2y0Vmk7Qx-43" value="返回校验成功" style="edgeLabel;html=1;align=center;verticalAlign=middle;resizable=0;points=[];" vertex="1" connectable="0" parent="HbaJhAwCwdT2y0Vmk7Qx-42">
          <mxGeometry x="-0.1808" y="1" relative="1" as="geometry">
            <mxPoint as="offset" />
          </mxGeometry>
        </mxCell>
        <mxCell id="HbaJhAwCwdT2y0Vmk7Qx-8" value="client" style="shape=umlLifeline;perimeter=lifelinePerimeter;whiteSpace=wrap;html=1;container=1;collapsible=0;recursiveResize=0;outlineConnect=0;" vertex="1" parent="1">
          <mxGeometry x="100" y="110" width="100" height="480" as="geometry" />
        </mxCell>
        <mxCell id="HbaJhAwCwdT2y0Vmk7Qx-9" value="" style="html=1;points=[];perimeter=orthogonalPerimeter;" vertex="1" parent="HbaJhAwCwdT2y0Vmk7Qx-8">
          <mxGeometry x="45" y="51" width="10" height="169" as="geometry" />
        </mxCell>
        <mxCell id="HbaJhAwCwdT2y0Vmk7Qx-21" value="" style="html=1;points=[];perimeter=orthogonalPerimeter;" vertex="1" parent="HbaJhAwCwdT2y0Vmk7Qx-8">
          <mxGeometry x="45" y="237" width="10" height="180" as="geometry" />
        </mxCell>
        <mxCell id="HbaJhAwCwdT2y0Vmk7Qx-23" value="" style="endArrow=block;dashed=1;endFill=0;endSize=6;html=1;rounded=0;entryX=-0.033;entryY=0.158;entryDx=0;entryDy=0;entryPerimeter=0;" edge="1" parent="HbaJhAwCwdT2y0Vmk7Qx-8" target="HbaJhAwCwdT2y0Vmk7Qx-24">
          <mxGeometry width="160" relative="1" as="geometry">
            <mxPoint x="60" y="247" as="sourcePoint" />
            <mxPoint x="469.5" y="247" as="targetPoint" />
          </mxGeometry>
        </mxCell>
        <mxCell id="HbaJhAwCwdT2y0Vmk7Qx-25" value="携带token访问受保护资源" style="edgeLabel;html=1;align=center;verticalAlign=middle;resizable=0;points=[];" vertex="1" connectable="0" parent="HbaJhAwCwdT2y0Vmk7Qx-23">
          <mxGeometry x="-0.396" y="2" relative="1" as="geometry">
            <mxPoint as="offset" />
          </mxGeometry>
        </mxCell>
        <mxCell id="HbaJhAwCwdT2y0Vmk7Qx-15" value="" style="endArrow=block;dashed=1;endFill=0;endSize=6;html=1;rounded=0;" edge="1" parent="1" source="HbaJhAwCwdT2y0Vmk7Qx-9" target="HbaJhAwCwdT2y0Vmk7Qx-17">
          <mxGeometry width="160" relative="1" as="geometry">
            <mxPoint x="155" y="221" as="sourcePoint" />
            <mxPoint x="370" y="221" as="targetPoint" />
            <Array as="points">
              <mxPoint x="220" y="181" />
            </Array>
          </mxGeometry>
        </mxCell>
        <mxCell id="HbaJhAwCwdT2y0Vmk7Qx-16" value="发送ak/sk" style="edgeLabel;html=1;align=center;verticalAlign=middle;resizable=0;points=[];" vertex="1" connectable="0" parent="HbaJhAwCwdT2y0Vmk7Qx-15">
          <mxGeometry x="0.1017" y="2" relative="1" as="geometry">
            <mxPoint as="offset" />
          </mxGeometry>
        </mxCell>
        <mxCell id="HbaJhAwCwdT2y0Vmk7Qx-18" value="" style="endArrow=block;dashed=1;endFill=0;endSize=6;html=1;rounded=0;exitX=-0.167;exitY=0.981;exitDx=0;exitDy=0;exitPerimeter=0;" edge="1" parent="1" source="HbaJhAwCwdT2y0Vmk7Qx-17" target="HbaJhAwCwdT2y0Vmk7Qx-9">
          <mxGeometry width="160" relative="1" as="geometry">
            <mxPoint x="380" y="261" as="sourcePoint" />
            <mxPoint x="160" y="261" as="targetPoint" />
            <Array as="points" />
          </mxGeometry>
        </mxCell>
        <mxCell id="HbaJhAwCwdT2y0Vmk7Qx-20" value="返回token" style="edgeLabel;html=1;align=center;verticalAlign=middle;resizable=0;points=[];" vertex="1" connectable="0" parent="HbaJhAwCwdT2y0Vmk7Qx-18">
          <mxGeometry x="0.1844" relative="1" as="geometry">
            <mxPoint as="offset" />
          </mxGeometry>
        </mxCell>
        <mxCell id="HbaJhAwCwdT2y0Vmk7Qx-22" value="资源服务器" style="shape=umlLifeline;perimeter=lifelinePerimeter;whiteSpace=wrap;html=1;container=1;collapsible=0;recursiveResize=0;outlineConnect=0;" vertex="1" parent="1">
          <mxGeometry x="520" y="110" width="100" height="480" as="geometry" />
        </mxCell>
        <mxCell id="HbaJhAwCwdT2y0Vmk7Qx-24" value="" style="html=1;points=[];perimeter=orthogonalPerimeter;" vertex="1" parent="HbaJhAwCwdT2y0Vmk7Qx-22">
          <mxGeometry x="45" y="217" width="10" height="200" as="geometry" />
        </mxCell>
        <mxCell id="HbaJhAwCwdT2y0Vmk7Qx-37" value="" style="endArrow=block;dashed=1;endFill=0;endSize=6;html=1;rounded=0;exitX=-0.1;exitY=0.46;exitDx=0;exitDy=0;exitPerimeter=0;" edge="1" parent="1">
          <mxGeometry width="160" relative="1" as="geometry">
            <mxPoint x="559" y="394" as="sourcePoint" />
            <mxPoint x="375" y="392" as="targetPoint" />
            <Array as="points">
              <mxPoint x="525" y="394" />
            </Array>
          </mxGeometry>
        </mxCell>
        <mxCell id="HbaJhAwCwdT2y0Vmk7Qx-38" value="向授权服务器发起校验" style="edgeLabel;html=1;align=center;verticalAlign=middle;resizable=0;points=[];" vertex="1" connectable="0" parent="HbaJhAwCwdT2y0Vmk7Qx-37">
          <mxGeometry x="-0.2665" relative="1" as="geometry">
            <mxPoint as="offset" />
          </mxGeometry>
        </mxCell>
        <mxCell id="HbaJhAwCwdT2y0Vmk7Qx-44" value="" style="endArrow=block;dashed=1;endFill=0;endSize=6;html=1;rounded=0;exitX=0.1;exitY=0.96;exitDx=0;exitDy=0;exitPerimeter=0;" edge="1" parent="1">
          <mxGeometry width="160" relative="1" as="geometry">
            <mxPoint x="560" y="519" as="sourcePoint" />
            <mxPoint x="154" y="519" as="targetPoint" />
          </mxGeometry>
        </mxCell>
        <mxCell id="HbaJhAwCwdT2y0Vmk7Qx-45" value="返回请求资源" style="edgeLabel;html=1;align=center;verticalAlign=middle;resizable=0;points=[];" vertex="1" connectable="0" parent="HbaJhAwCwdT2y0Vmk7Qx-44">
          <mxGeometry x="-0.2151" relative="1" as="geometry">
            <mxPoint as="offset" />
          </mxGeometry>
        </mxCell>
      </root>
    </mxGraphModel>
  </diagram>
</mxfile>
